<svg width="16" height="16" viewBox="0 0 16 16" fill="none" xmlns="http://www.w3.org/2000/svg">
<g clip-path="url(#clip0)">
<path d="M15.9055 13.4201C15.5519 12.7941 15.0289 11.6571 15.0289 11.2044C15.0289 10.358 15.0878 9.30541 15.1162 8.69836C15.1445 8.09132 14.7325 6.59925 14.3562 4.97508C14.0859 3.80858 12.6058 4.33531 12.1988 4.62443C11.9118 4.82828 11.3428 5.40816 10.2193 5.80319V5.10099C10.2193 4.97004 10.1132 4.86388 9.98223 4.86388H8.00002H6.01777C5.88682 4.86388 5.78066 4.97004 5.78066 5.10099V5.80319C4.65721 5.40816 4.08823 4.82828 3.80119 4.62443C3.39413 4.33531 1.91406 3.80861 1.64382 4.97508C1.26755 6.59925 0.855512 8.09128 0.883864 8.69836C0.912216 9.30545 0.971156 10.358 0.971156 11.2044C0.971156 11.6571 0.448115 12.7941 0.094543 13.4201C-0.103516 13.7702 0.0197163 14.2146 0.369766 14.4126C0.719849 14.6108 1.1642 14.4875 1.36226 14.1374C1.54016 13.8229 2.42772 12.2036 2.42772 11.2044C2.42772 10.9629 2.42955 10.6699 2.43216 10.3745C2.43216 10.2009 2.5393 10.2203 2.58865 10.2777C3.61285 11.4677 3.80461 12.7644 3.83943 13.9138C3.85142 14.3083 4.17495 14.6201 4.567 14.6201C4.57445 14.6201 4.58194 14.62 4.5895 14.6197C4.99154 14.6075 5.30758 14.2718 5.29539 13.8697C5.25467 12.5264 4.99659 10.6193 3.35101 8.96011C3.31697 8.92579 3.25772 8.80971 3.29214 8.65453C3.32151 8.52182 3.79692 6.3598 3.82795 6.23735C3.85898 6.11486 3.9609 6.17902 4.01696 6.21767C4.50312 6.55278 5.21256 6.85784 5.78069 6.98145V9.03087C5.78069 9.16182 5.88685 9.26798 6.01781 9.26798H8.00005H9.9823C10.1133 9.26798 10.2194 9.16182 10.2194 9.03087V6.98145C10.7875 6.85784 11.4971 6.55275 11.9831 6.21767C12.0392 6.17902 12.1411 6.11486 12.1721 6.23735C12.2031 6.35984 12.6786 8.52182 12.708 8.65453C12.7423 8.80967 12.6831 8.92572 12.6491 8.96011C11.0035 10.6193 10.7454 12.5263 10.7047 13.8697C10.6925 14.2717 11.0086 14.6075 11.4106 14.6197C11.4181 14.62 11.4256 14.6201 11.4331 14.6201C11.8251 14.6201 12.1486 14.3084 12.1606 13.9138C12.1954 12.7644 12.3872 11.4677 13.4114 10.2777C13.4608 10.2204 13.5679 10.2009 13.5679 10.3745C13.5706 10.67 13.5724 10.9629 13.5724 11.2044C13.5724 12.2037 14.4599 13.823 14.6378 14.1374C14.8359 14.4875 15.2803 14.6108 15.6303 14.4126C15.9803 14.2146 16.1036 13.7702 15.9055 13.4201Z" fill="white"/>
<path d="M12.142 4.17624C12.9142 4.17624 13.5403 3.5502 13.5403 2.77794C13.5403 2.00568 12.9142 1.37964 12.142 1.37964C11.3697 1.37964 10.7437 2.00568 10.7437 2.77794C10.7437 3.5502 11.3697 4.17624 12.142 4.17624Z" fill="white"/>
<path d="M3.85826 4.17624C4.63052 4.17624 5.25656 3.5502 5.25656 2.77794C5.25656 2.00568 4.63052 1.37964 3.85826 1.37964C3.086 1.37964 2.45996 2.00568 2.45996 2.77794C2.45996 3.5502 3.086 4.17624 3.85826 4.17624Z" fill="white"/>
<rect x="5" y="4.5" width="6" height="6" rx="1" fill="white"/>
</g>
<defs>
<clipPath id="clip0">
<rect width="16" height="16" fill="white"/>
</clipPath>
</defs>
</svg>
