<svg width="32" height="32" viewBox="0 0 32 32" fill="none" xmlns="http://www.w3.org/2000/svg">
<g clip-path="url(#clip0)">
<path d="M31.811 26.8405C31.1038 25.5885 30.0578 23.3145 30.0578 22.409C30.0578 20.7163 30.1756 18.6111 30.2323 17.397C30.2891 16.1829 29.465 13.1988 28.7124 9.95041C28.1718 7.61741 25.2116 8.67087 24.3976 9.24909C23.8236 9.6568 22.6856 10.8166 20.4387 11.6066V10.2022C20.4387 9.94032 20.2264 9.728 19.9645 9.728H16H12.0355C11.7736 9.728 11.5613 9.94032 11.5613 10.2022V11.6066C9.31442 10.8166 8.17647 9.6568 7.60238 9.24909C6.78826 8.67087 3.82812 7.61747 3.28763 9.95041C2.5351 13.1988 1.71102 16.1828 1.76773 17.397C1.82443 18.6111 1.94231 20.7163 1.94231 22.409C1.94231 23.3145 0.89623 25.5884 0.189086 26.8405C-0.207031 27.5407 0.0394326 28.4294 0.739531 28.8255C1.4397 29.2218 2.3284 28.9752 2.72452 28.2751C3.08033 27.6461 4.85544 24.4075 4.85544 22.409C4.85544 21.9261 4.8591 21.3401 4.86431 20.7492C4.86431 20.402 5.0786 20.4409 5.1773 20.5557C7.22571 22.9356 7.60922 25.5291 7.67887 27.8279C7.70285 28.6169 8.3499 29.2404 9.13401 29.2404C9.14891 29.2404 9.16388 29.2402 9.17899 29.2397C9.98308 29.2153 10.6152 28.5437 10.5908 27.7396C10.5093 25.053 9.99317 21.2388 6.70202 17.9205C6.63393 17.8518 6.51544 17.6197 6.58428 17.3093C6.64301 17.0439 7.59384 12.7198 7.6559 12.4749C7.71796 12.23 7.92181 12.3583 8.03393 12.4356C9.00623 13.1058 10.4251 13.7159 11.5614 13.9631V18.062C11.5614 18.3239 11.7737 18.5362 12.0356 18.5362H16.0001H19.9646C20.2265 18.5362 20.4388 18.3239 20.4388 18.062V13.9631C21.575 13.7159 22.9941 13.1057 23.9662 12.4356C24.0783 12.3583 24.2822 12.23 24.3442 12.4749C24.4063 12.7199 25.3571 17.0439 25.4159 17.3093C25.4847 17.6196 25.3662 17.8517 25.2981 17.9205C22.007 21.2388 21.4908 25.0529 21.4094 27.7396C21.3851 28.5437 22.0171 29.2153 22.8212 29.2397C22.8363 29.2402 22.8512 29.2404 22.8661 29.2404C23.6501 29.2404 24.2973 28.617 24.3213 27.8279C24.3909 25.5291 24.7744 22.9356 26.8228 20.5557C26.9215 20.441 27.1359 20.402 27.1359 20.7492C27.1411 21.3402 27.1448 21.9261 27.1448 22.409C27.1448 24.4076 28.9198 27.6462 29.2757 28.2751C29.6718 28.9752 30.5605 29.2218 31.2607 28.8255C31.9606 28.4295 32.2072 27.5407 31.811 26.8405Z" fill="#4C69FE"/>
<path d="M24.2837 8.35272C25.8282 8.35272 27.0803 7.10064 27.0803 5.55612C27.0803 4.0116 25.8282 2.75952 24.2837 2.75952C22.7391 2.75952 21.4871 4.0116 21.4871 5.55612C21.4871 7.10064 22.7391 8.35272 24.2837 8.35272Z" fill="#4C69FE"/>
<path d="M7.71652 8.35272C9.26104 8.35272 10.5131 7.10064 10.5131 5.55612C10.5131 4.0116 9.26104 2.75952 7.71652 2.75952C6.172 2.75952 4.91992 4.0116 4.91992 5.55612C4.91992 7.10064 6.172 8.35272 7.71652 8.35272Z" fill="#4C69FE"/>
<rect x="10" y="9" width="12" height="12" rx="1" fill="#4C69FE"/>
</g>
<defs>
<clipPath id="clip0">
<rect width="31.9999" height="32" fill="white"/>
</clipPath>
</defs>
</svg>
