<svg width="32" height="32" viewBox="0 0 32 32" fill="none" xmlns="http://www.w3.org/2000/svg">
<path d="M3.33331 14.6666V10.6666C3.70131 10.6666 4 10.3679 4 9.99994C4 9.63194 3.70131 9.33325 3.33331 9.33325C1.49469 9.33325 0 10.8293 0 12.6666V13.9999C0 15.1026 0.897313 16 2 16H3.33331C3.70131 16 4 15.7013 4 15.3333C4 14.9653 3.70131 14.6666 3.33331 14.6666Z" fill="#4C69FE"/>
<path d="M28.6667 9.33325C28.2987 9.33325 28 9.63194 28 9.99994C28 10.3679 28.2987 10.6666 28.6667 10.6666V14.6666C28.2987 14.6666 28 14.9653 28 15.3333C28 15.7013 28.2987 16 28.6667 16H30C31.1027 16 32 15.1026 32 13.9999V12.6666C32 10.8293 30.5053 9.33325 28.6667 9.33325Z" fill="#4C69FE"/>
<path d="M11.3333 28C10.9653 28 10.6666 28.2987 10.6666 28.6667H6.66663C6.66663 28.2987 6.36794 28 5.99994 28C5.63194 28 5.33325 28.2987 5.33325 28.6667V30C5.33325 31.1027 6.23056 32 7.33325 32H10C11.1027 32 12 31.1027 12 30V28.6667C12 28.2987 11.7013 28 11.3333 28Z" fill="#4C69FE"/>
<path d="M26 28C25.632 28 25.3333 28.2987 25.3333 28.6667H21.3333C21.3333 28.2987 21.0346 28 20.6666 28C20.2986 28 20 28.2987 20 28.6667V30C20 31.1027 20.8973 32 22 32H24.6667C25.7694 32 26.6667 31.1027 26.6667 30V28.6667C26.6667 28.2987 26.368 28 26 28Z" fill="#4C69FE"/>
<path d="M26.0001 0H6.00006C4.16137 0 2.66675 1.496 2.66675 3.33331V26C2.66675 27.8373 4.16144 29.3333 6.00006 29.3333H26.0001C27.8387 29.3333 29.3334 27.8373 29.3334 26V3.33331C29.3334 1.496 27.8387 0 26.0001 0ZM8.66675 2.66669H23.3334C24.4361 2.66669 25.3334 3.564 25.3334 4.66669C25.3334 5.76937 24.4361 6.66669 23.3334 6.66669H8.66675C7.56406 6.66669 6.66675 5.76937 6.66675 4.66669C6.66675 3.564 7.56406 2.66669 8.66675 2.66669ZM8.66675 25.3333C7.56406 25.3333 6.66675 24.436 6.66675 23.3333C6.66675 22.2306 7.56406 21.3333 8.66675 21.3333C9.76944 21.3333 10.6667 22.2306 10.6667 23.3333C10.6667 24.436 9.76937 25.3333 8.66675 25.3333ZM23.3334 25.3333C22.2307 25.3333 21.3334 24.436 21.3334 23.3333C21.3334 22.2306 22.2307 21.3333 23.3334 21.3333C24.4361 21.3333 25.3334 22.2306 25.3334 23.3333C25.3334 24.436 24.4361 25.3333 23.3334 25.3333ZM26.6667 16.6667C26.6667 17.7694 25.7694 18.6667 24.6667 18.6667H7.33337C6.23069 18.6667 5.33337 17.7694 5.33337 16.6667V10C5.33337 8.89731 6.23069 8 7.33337 8H24.6667C25.7694 8 26.6667 8.89731 26.6667 10V16.6667H26.6667Z" fill="#4C69FE"/>
</svg>
