<svg width="16" height="16" viewBox="0 0 16 16" fill="none" xmlns="http://www.w3.org/2000/svg">
<path d="M1.66666 7.33332V5.33332C1.85066 5.33332 2 5.18397 2 4.99997C2 4.81597 1.85066 4.66663 1.66666 4.66663C0.747344 4.66663 0 5.41463 0 6.33332V6.99997C0 7.55132 0.448656 7.99998 1 7.99998H1.66666C1.85066 7.99998 2 7.85063 2 7.66663C2 7.48263 1.85066 7.33332 1.66666 7.33332Z" fill="white"/>
<path d="M14.3333 4.66663C14.1493 4.66663 14 4.81597 14 4.99997C14 5.18397 14.1493 5.33332 14.3333 5.33332V7.33332C14.1493 7.33332 14 7.48266 14 7.66666C14 7.85066 14.1493 7.99998 14.3333 7.99998H15C15.5513 7.99998 16 7.55132 16 6.99997V6.33332C16 5.41463 15.2527 4.66663 14.3333 4.66663Z" fill="white"/>
<path d="M5.66653 14C5.48253 14 5.33319 14.1493 5.33319 14.3333H3.33319C3.33319 14.1493 3.18385 14 2.99985 14C2.81585 14 2.6665 14.1493 2.6665 14.3333V15C2.6665 15.5513 3.11516 16 3.6665 16H4.99988C5.55122 16 5.99988 15.5513 5.99988 15V14.3333C5.99988 14.1493 5.85053 14 5.66653 14Z" fill="white"/>
<path d="M13 14C12.816 14 12.6667 14.1493 12.6667 14.3333H10.6667C10.6667 14.1493 10.5173 14 10.3333 14C10.1493 14 10 14.1493 10 14.3333V15C10 15.5513 10.4487 16 11 16H12.3333C12.8847 16 13.3333 15.5513 13.3333 15V14.3333C13.3333 14.1493 13.184 14 13 14Z" fill="white"/>
<path d="M13.0002 0H3.00015C2.08081 0 1.3335 0.748 1.3335 1.66666V13C1.3335 13.9187 2.08084 14.6667 3.00015 14.6667H13.0002C13.9195 14.6667 14.6668 13.9187 14.6668 13V1.66666C14.6668 0.748 13.9195 0 13.0002 0ZM4.3335 1.33334H11.6668C12.2182 1.33334 12.6668 1.782 12.6668 2.33334C12.6668 2.88469 12.2182 3.33334 11.6668 3.33334H4.3335C3.78215 3.33334 3.3335 2.88469 3.3335 2.33334C3.3335 1.782 3.78215 1.33334 4.3335 1.33334ZM4.3335 12.6667C3.78215 12.6667 3.3335 12.218 3.3335 11.6667C3.3335 11.1153 3.78215 10.6667 4.3335 10.6667C4.88484 10.6667 5.3335 11.1153 5.3335 11.6667C5.3335 12.218 4.88481 12.6667 4.3335 12.6667ZM11.6668 12.6667C11.1155 12.6667 10.6668 12.218 10.6668 11.6667C10.6668 11.1153 11.1155 10.6667 11.6668 10.6667C12.2182 10.6667 12.6668 11.1153 12.6668 11.6667C12.6668 12.218 12.2182 12.6667 11.6668 12.6667ZM13.3335 8.33334C13.3335 8.88469 12.8848 9.33334 12.3335 9.33334H3.66681C3.11546 9.33334 2.66681 8.88469 2.66681 8.33334V5C2.66681 4.44866 3.11546 4 3.66681 4H12.3335C12.8848 4 13.3335 4.44866 13.3335 5V8.33334H13.3335Z" fill="white"/>
</svg>
