<svg width="10" height="16" viewBox="0 0 10 16" fill="none" xmlns="http://www.w3.org/2000/svg">
<path d="M4.43895 3.07249C5.2874 3.07249 5.9752 2.38469 5.9752 1.53624C5.9752 0.6878 5.2874 0 4.43895 0C3.59051 0 2.90271 0.6878 2.90271 1.53624C2.90271 2.38469 3.59051 3.07249 4.43895 3.07249Z" fill="white"/>
<path d="M9.02254 6.93071C7.62476 6.20296 6.47788 5.21994 5.51246 4.06349C4.90582 3.29618 3.30196 3.33624 2.65023 4.03936C1.65881 4.90694 0.8176 5.80114 0.150384 6.69584C-0.122367 7.06233 -0.0139308 7.55819 0.393259 7.80351C0.545126 7.89507 0.716356 7.93886 0.886479 7.93886C1.17251 7.93886 1.45356 7.81471 1.62451 7.58482C1.91746 7.19245 2.24968 6.79885 2.61759 6.40698C2.60348 7.23624 2.64968 8.73255 2.67292 9.40507C2.68066 9.62899 2.62395 9.84794 2.50832 10.0467C1.59325 11.6184 1.00792 13.1055 0.413729 14.9248C0.268225 15.3689 0.551211 15.8349 1.04471 15.9655C1.15646 15.9951 1.26933 16.0051 1.37832 15.9976C1.75397 15.9717 2.08979 15.7416 2.2021 15.3978C2.75037 13.7203 3.28011 12.3621 4.10638 10.924C4.14843 10.9255 4.19047 10.9255 4.23307 10.9238C4.7606 12.3395 5.28839 13.7559 5.81675 15.1716C6.20042 16.2034 7.9805 15.6675 7.59571 14.6354C7.0184 13.0876 6.44192 11.5405 5.86654 9.99299C5.83307 9.90417 5.75202 9.55634 5.74067 9.44288C5.64551 8.48947 5.61094 7.53904 5.62117 6.58736C6.43113 7.28526 7.32932 7.8906 8.32711 8.4106C9.32212 8.9301 10.0043 7.4425 9.02254 6.93071Z" fill="white"/>
</svg>
