<svg width="19" height="32" viewBox="0 0 19 32" fill="none" xmlns="http://www.w3.org/2000/svg">
<path d="M8.87778 6.14497C10.5747 6.14497 11.9503 4.76937 11.9503 3.07249C11.9503 1.3756 10.5747 0 8.87778 0C7.1809 0 5.8053 1.3756 5.8053 3.07249C5.8053 4.76937 7.1809 6.14497 8.87778 6.14497Z" fill="#4C69FE"/>
<path d="M18.0451 13.8614C15.2495 12.4059 12.9558 10.4399 11.0249 8.12699C9.81165 6.59237 6.60392 6.67248 5.30047 8.07872C3.31763 9.81388 1.6352 11.6023 0.300767 13.3917C-0.244735 14.1247 -0.0278617 15.1164 0.786519 15.607C1.09025 15.7901 1.43271 15.8777 1.77296 15.8777C2.34502 15.8777 2.90712 15.6294 3.24902 15.1696C3.83491 14.3849 4.49936 13.5977 5.23518 12.814C5.20697 14.4725 5.29936 17.4651 5.34583 18.8101C5.36132 19.258 5.24791 19.6959 5.01665 20.0935C3.18651 23.2369 2.01583 26.2111 0.827459 29.8496C0.536451 30.7378 1.10242 31.6698 2.08942 31.9311C2.31293 31.9903 2.53865 32.0102 2.75663 31.9952C3.50794 31.9435 4.17959 31.4832 4.4042 30.7955C5.50074 27.4406 6.56021 24.7242 8.21276 21.848C8.29685 21.851 8.38095 21.851 8.46615 21.8475C9.52119 24.6789 10.5768 27.5118 11.6335 30.3432C12.4008 32.4068 15.961 31.3349 15.1914 29.2708C14.0368 26.1752 12.8838 23.0811 11.7331 19.986C11.6661 19.8083 11.504 19.1127 11.4813 18.8858C11.291 16.9789 11.2219 15.0781 11.2423 13.1747C12.8623 14.5705 14.6586 15.7812 16.6542 16.8212C18.6442 17.8602 20.0086 14.885 18.0451 13.8614Z" fill="#4C69FE"/>
</svg>
